<?xml version="1.0" ?><!DOCTYPE svg  PUBLIC '-//W3C//DTD SVG 1.1//EN'  'http://www.w3.org/Graphics/SVG/1.1/DTD/svg11.dtd'><svg width="7.06px" height="7.06px" viewBox="-0.69 0 7.06 7.06" style="shape-rendering:geometricPrecision; text-rendering:geometricPrecision; image-rendering:optimizeQuality; fill-rule:evenodd; clip-rule:evenodd" version="1.1" xml:space="preserve" xmlns="http://www.w3.org/2000/svg" xmlns:xlink="http://www.w3.org/1999/xlink"><defs><style type="text/css">
   <![CDATA[
    .fil0 {fill:black;fill-rule:nonzero}
   ]]>
  </style></defs><g id="Layer_x0020_1"><path class="fil0" d="M5.68 1.37l0 4.32c0,0.37 -0.15,0.72 -0.4,0.97l0 0c-0.25,0.25 -0.59,0.4 -0.97,0.4l-2.94 0c-0.37,0 -0.72,-0.15 -0.97,-0.4l0 0c-0.25,-0.25 -0.4,-0.6 -0.4,-0.97l0 -4.32c0,-0.37 0.15,-0.72 0.4,-0.97 0.25,-0.25 0.6,-0.4 0.97,-0.4l2.94 0c0.38,0 0.72,0.15 0.97,0.4 0.25,0.25 0.4,0.6 0.4,0.97zm-4.45 3.54l2.92 0 0 0.82 -2.92 0 0 -0.82zm0 -1.41l2.92 0 0 0.82 -2.92 0 0 -0.82zm1.74 -2.69l0 2.03 -2.16 0 0 2.85c0,0.15 0.07,0.29 0.17,0.39l0 0c0.1,0.1 0.24,0.17 0.39,0.17l2.94 0c0.15,0 0.29,-0.07 0.39,-0.17l0 0c0.11,-0.1 0.17,-0.24 0.17,-0.39l0 -4.32c0,-0.15 -0.06,-0.29 -0.17,-0.39 -0.1,-0.1 -0.24,-0.17 -0.39,-0.17l-1.34 0zm-2.16 1.21l1.35 0 0 -1.21 -0.79 0c-0.15,0 -0.29,0.07 -0.39,0.17 -0.1,0.1 -0.17,0.24 -0.17,0.39l0 0.65z"/></g></svg>